Coordinates
version=1
nRows=18
nColumns=22
inDegrees=yes

Units are S.I. units (second, meters, Newtons, ...)
If the header above contains a line with 'inDegrees', this indicates whether rotational values are in degrees (yes) or radians (no).

endheader
time	pelvis_tilt	pelvis_list	pelvis_rotation	pelvis_tx	pelvis_ty	pelvis_tz	hip_flexion_r	hip_adduction_r	hip_rotation_r	knee_angle_r	ankle_angle_r	subtalar_angle_r	hip_flexion_l	hip_adduction_l	hip_rotation_l	knee_angle_l	ankle_angle_l	subtalar_angle_l	lumbar_extension	lumbar_bending	lumbar_rotation
      2.17000000	      1.10016890	      0.00544417	    126.51660581	     -0.29857181	      0.90433907	      0.70192393	     -2.66093575	     10.89211210	     14.92185078	    -20.44732764	     14.35171416	     -7.95996092	     22.85338769	    -12.79018858	     -8.57456126	     -6.58594155	      3.48188771	     15.89333617	     -5.71375739	      0.38478475	      9.01443344
      2.18000000	      1.20385573	      0.00360463	    125.75319928	     -0.30493594	      0.90235112	      0.69596831	     -3.04073393	     10.79392367	     15.35161778	    -20.90834864	     14.90269835	     -7.87226315	     23.04814939	    -12.69883674	     -9.22106711	     -5.12447494	      3.42719275	     17.32114222	     -5.66300395	      0.54430841	      9.00424562
      2.19000000	      1.29054628	      0.07713457	    125.03872610	     -0.31136457	      0.90047564	      0.68991373	     -3.54429255	     10.71618328	     15.75268972	    -21.28349927	     15.39777856	     -7.80023332	     23.28590209	    -12.66234306	     -9.69488085	     -4.25264821	      3.41191893	     18.44434783	     -5.69854472	      0.73164554	      8.95218509
      2.20000000	      1.35653649	      0.21128855	    124.35521696	     -0.31783344	      0.89873467	      0.68372493	     -4.16080910	     10.64468729	     16.13884813	    -21.57728916	     15.81211322	     -7.75048636	     23.57595476	    -12.68387520	    -10.01532630	     -4.00495518	      3.45340853	     19.16506544	     -5.80757715	      0.92589942	      8.88818473
      2.21000000	      1.42368451	      0.39154415	    123.71683492	     -0.32437830	      0.89709840	      0.67739651	     -4.86556093	     10.58846399	     16.51141439	    -21.79016177	     16.17429670	     -7.71999989	     23.92996637	    -12.76459974	    -10.07600719	     -4.34803490	      3.62450002	     19.40211857	     -5.95501611	      1.13905852	      8.81116752
      2.22000000	      1.46948192	      0.63414745	    123.09355658	     -0.33096178	      0.89565036	      0.67088824	     -5.68382218	     10.53441052	     16.89504669	    -21.93116000	     16.42962349	     -7.70265129	     24.27700578	    -12.89623625	     -9.94222717	     -5.19405677	      3.75338990	     19.45891318	     -6.17113338	      1.35413137	      8.74215382
      2.23000000	      1.50753616	      0.90093658	    122.47048578	     -0.33758803	      0.89433535	      0.66418983	     -6.56305160	     10.47140746	     17.31675221	    -22.02686641	     16.62254182	     -7.69326290	     24.60986288	    -13.05299629	     -9.56134917	     -6.42293639	      3.89684827	     19.26848946	     -6.40392084	      1.55807069	      8.70182997
      2.24000000	      1.54833863	      1.17064256	    121.83688040	     -0.34428327	      0.89315181	      0.65733033	     -7.46857143	     10.38875095	     17.77516173	    -22.08937835	     16.71984031	     -7.68529470	     24.90679545	    -13.20789907	     -8.93262511	     -7.89859789	      4.01403982	     18.80739191	     -6.62510883	      1.75471333	      8.70891220
      2.25000000	      1.56723117	      1.37647131	    121.19035424	     -0.35107317	      0.89207659	      0.65032804	     -8.32078279	     10.22600682	     18.22117789	    -22.17673634	     16.74100579	     -7.65046560	     25.15957385	    -13.27696544	     -8.09708483	     -9.47612480	      3.99419594	     18.00381549	     -6.77829281	      1.87995801	      8.73332936
      2.26000000	      1.59858286	      1.52782098	    120.53330634	     -0.35798518	      0.89107964	      0.64314634	     -9.11735325	     10.01984786	     18.67464259	    -22.27416785	     16.71826741	     -7.54897910	     25.34887363	    -13.28069498	     -7.01279771	    -11.04704110	      3.94840005	     17.35748357	     -6.84064639	      1.97657384	      8.79720132
      2.27000000	      1.59120945	      1.56004626	    119.86370298	     -0.36502969	      0.89017226	      0.63583816	     -9.78484947	      9.69366696	     19.09438721	    -22.44948498	     16.63795103	     -7.32210198	     25.49741569	    -13.13397466	     -5.84003950	    -12.56292772	      3.72785254	     16.49056274	     -6.78287679	      1.96271962	      8.82397181
      2.28000000	      1.58064948	      1.51254676	    119.19742565	     -0.37223682	      0.88937133	      0.62836137	    -10.36171581	      9.30247771	     19.48005928	    -22.65388384	     16.43193330	     -7.00766175	     25.59492884	    -12.88817221	     -4.55932643	    -13.98180764	      3.40720536	     15.74959862	     -6.61583632	      1.90067292	      8.84077350
      2.29000000	      1.55693064	      1.38368268	    118.51951914	     -0.37955042	      0.88868663	      0.62072695	    -10.81784105	      8.84434763	     19.80063095	    -22.94172131	     16.10432882	     -6.60057236	     25.65627944	    -12.55558116	     -3.26767983	    -15.30916041	      2.92451590	     15.02939826	     -6.35372334	      1.77938200	      8.84972926
      2.30000000	      1.51301834	      1.15808076	    117.80781722	     -0.38691908	      0.88808050	      0.61288358	    -11.14315981	      8.31585501	     20.13788428	    -23.31878779	     15.68982485	     -6.03423682	     25.73407201	    -12.16262059	     -2.13826437	    -16.61039221	      2.36492702	     14.25601831	     -5.98446535	      1.58154569	      8.81788407
      2.31000000	      1.46900315	      0.91503514	    117.07884984	     -0.39429170	      0.88761669	      0.60487189	    -11.36409989	      7.78836436	     20.40447654	    -23.83663622	     15.10008032	     -5.42021056	     25.80697351	    -11.78084308	     -1.14732189	    -17.91205390	      1.72302422	     13.57556600	     -5.59493438	      1.37059379	      8.78378258
      2.32000000	      1.42615134	      0.66060261	    116.31840821	     -0.40161365	      0.88728264	      0.59662365	    -11.49027230	      7.27945013	     20.67748792	    -24.49478349	     14.31898390	     -4.69928902	     25.91832710	    -11.45510984	     -0.45321819	    -19.30756289	      1.12514798	     12.94589306	     -5.18783790	      1.14666203	      8.70813931
      2.33000000	      1.38031918	      0.44302404	    115.53908591	     -0.40886503	      0.88712956	      0.58817438	    -11.53351021	      6.81735064	     20.88245922	    -25.34708883	     13.31796504	     -3.93369887	     26.02952694	    -11.20772865	     -0.00958133	    -20.79996641	      0.62270817	     12.41748051	     -4.82601829	      0.92982402	      8.62979250
      2.34000000	      1.31407855	      0.28550191	    114.73539219	     -0.41599991	      0.88718904	      0.57951564	    -11.49998993	      6.40749727	     21.02049331	    -26.43538374	     12.05933338	     -3.11985110	     26.10533417	    -11.04663225	      0.14067651	    -22.39007244	      0.31480348	     11.96633104	     -4.54497123	      0.71015614	      8.51519517
